PathFileType	4	(X/Y/Z)	pose_F01_0-96.trc
DataRate	CameraRate	NumFrames	NumMarkers	Units	OrigDataRate	OrigDataStartFrame	OrigNumFrames
30	30	10	21	m	30	19	96
Frame#	Time	CHip			RHip			RKnee			RAnkle			RBigToe			RSmallToe			RHeel			LHip			LKnee			LAnkle			LBigToe			LSmallToe			LHeel			Neck			Nose			RShoulder			RElbow			RWrist			LShoulder			LElbow			LWrist			
		X1	Y1	Z1	X2	Y2	Z2	X3	Y3	Z3	X4	Y4	Z4	X5	Y5	Z5	X6	Y6	Z6	X7	Y7	Z7	X8	Y8	Z8	X9	Y9	Z9	X10	Y10	Z10	X11	Y11	Z11	X12	Y12	Z12	X13	Y13	Z13	X14	Y14	Z14	X15	Y15	Z15	X16	Y16	Z16	X17	Y17	Z17	X18	Y18	Z18	X19	Y19	Z19	X20	Y20	Z20	X21	Y21	Z21	
19	0.6333333333333333	-0.28536672817377384	1.8888733551481878	-0.6348899205752522	-0.2960819819965998	1.885126883396418	-0.5774654060170635																-0.26919349017857364	1.8947538972786806	-0.7047727541433136																-0.2720433167354858	2.0493291431062066	-0.6269193511411518	-0.25220769956048444	2.099822687426602	-0.5936443464800304	-0.29275948738366453	2.04183891681079	-0.5345566745113878	-1.6146596118420766	1.869098825875892	0.8948638504468659	-0.30344121248772343	1.8827299211095447	-0.4651257708218221	-0.245915707822914	2.055947157516568	-0.7187423388598505	-0.2402970149490069	1.97479971517906	-0.7318319186170925	-0.25722280899344524	2.0189967367108053	-0.6263182435430007
20	0.6666666666666666	-0.28536672817377384	1.8888733551481878	-0.6348899205752522	-0.2960819819965998	1.885126883396418	-0.5774654060170635																-0.26919349017857364	1.8947538972786806	-0.7047727541433136																-0.2720433167354858	2.0493291431062066	-0.6269193511411518	-0.25220769956048444	2.099822687426602	-0.5936443464800304	-0.29275948738366453	2.04183891681079	-0.5345566745113878	-1.6146596118420766	1.869098825875892	0.8948638504468659	-0.30344121248772343	1.8827299211095447	-0.4651257708218221	-0.245915707822914	2.055947157516568	-0.7187423388598505	-0.2402970149490069	1.97479971517906	-0.7318319186170925	-0.25722280899344524	2.0189967367108053	-0.6263182435430007
21	0.7	-0.28644244775392436	1.8858667374426532	-0.6376669861962442	-0.2990714635203065	1.8804373375558496	-0.5779440676890374																-0.26933711571538127	1.8911220481075839	-0.7046522002833144																-0.2722656088433199	2.0437858753786213	-0.6264849421495778	-0.253337641381433	2.0927847909814568	-0.5956368804186444	-0.2938379695520783	2.0367146870520974	-0.53682986372179	-0.30096147922573413	1.9548173877536377	-0.4979561103272794	-0.2991761343333672	1.8759674985197723	-0.45943061528755536	-0.24692736922836606	2.0513040461278593	-0.7212164121161654	-0.23947045351176202	1.9671137101797618	-0.7365389068800254	-0.2589941518545222	2.0074933664957815	-0.6390605053518079
22	0.7333333333333333	-0.28832606140958683	1.8845285961348417	-0.6438397209368972	-0.3000293501154373	1.878580905869887	-0.5810823890639104																-0.27317684943994713	1.889601413517874	-0.7084705385411669																-0.27133869219260237	2.0409972342127447	-0.6312882037248799	-0.25323187556995436	2.087192819198483	-0.6024822262728372	-0.2948213919447697	2.035324388384387	-0.5395035089692227	-0.2979111609561401	1.956901762204426	-0.49736221084188187	-0.2929373699061153	1.8802495480764427	-0.4496999818709546	-0.24784745949262743	2.047743499632004	-0.7236056579399613	-0.23890799968866017	1.9665363427980342	-0.7450890019891038	-0.25991435542214314	2.0038169998179836	-0.6502190969666273
23	0.7666666666666667	-0.2890568724354729	1.8835931564625032	-0.6553857262772317	-0.3007923249726766	1.8803561790199645	-0.5928509543766571																-0.27304351020515416	1.8889510483438496	-0.7167623532971483																-0.2742838965789617	2.038005158371356	-0.6403414734329261	-0.2555055130702307	2.0820271754513713	-0.6086081125339163	-0.29499131981360405	2.0323499546540233	-0.5477137183880211	-1.6262864138103075	1.866520621381034	0.9200147515124222	-0.28458182420019673	1.8857364671515142	-0.4591809562509878	-0.2514996997541327	2.046707774807844	-0.7356858229440782	-0.23845217995675472	1.9654778942905173	-0.7532491589350362	-0.25051428246576496	1.9996160394048015	-0.6736855841475091
24	0.8	-0.2900706116114068	1.881890106278986	-0.6584293499341454	-0.30389001104954483	1.8797069155598398	-0.6022213199617029																-0.2747941549166798	1.8891064160901379	-0.7228249788762926																-0.2750118931216052	2.037982591232298	-0.6516345828100732	-0.2533701551757364	2.079022409330256	-0.6188108831152017	-0.29602539828266533	2.032535283114029	-0.5591625903703612	-1.6093510758394631	1.8725120178355883	0.8844310814972463	-0.28232227377202557	1.8925908546075416	-0.4680566376343658	-0.25116430247713445	2.0442769269336596	-0.7437112539285659	-0.24150135621237742	1.9680673717572097	-0.7741571993414147	-0.2585429859182901	2.00245388570874	-0.6732167779488263
25	0.8333333333333334	-0.2869840783262328	1.8782441603685154	-0.6655006911560112	-0.30197897447313204	1.8748453615994682	-0.6040068149235212																-0.2736995516199931	1.885059599299519	-0.7279160043555624																-0.2757749172505487	2.037490418901411	-0.6631884895372607	-0.2559888589335075	2.0758830027283635	-0.6352712161545926	-0.29612135275269713	2.0318596473885235	-0.5759412860986112	-0.29641691403895243	1.961321372735087	-0.53459312794057	-0.28158959142654505	1.8960116216337508	-0.48251252045892173	-0.25080538813264575	2.043865653248351	-0.7521091753689746	-0.24213660194956801	1.9666784821235925	-0.7768189475944298	-0.26065817285258464	2.004823362711602	-0.6903402532905523
26	0.8666666666666667	-0.28621476517636096	1.8808758675874018	-0.6826745842845593	-0.30044721901915533	1.8757581272320656	-0.6181691679631306																-0.2739794630094448	1.886146955492135	-0.7396827115163321																-0.27830905181787835	2.0381575019903844	-0.6806204966020386	-0.2606406308271124	2.073081949277003	-0.6497787378628714	-0.2991197961551122	2.031324208987432	-0.5935492985824505	-1.5480929506629042	1.8680422982794425	0.7683845951387315	-0.28171128490452874	1.8937770928677549	-0.49955958011075213	-0.2550893114763761	2.0444025753465964	-0.767152032351822	-0.24189759179753068	1.9686738677120954	-0.7765555545050343	-0.2596274718258383	2.012011251289333	-0.6973573506065718
27	0.9	-0.2870494868608401	1.880666920228197	-0.694466860365498	-0.2992202568221836	1.8767274803992782	-0.6404403374712482																-1.185561174868121	1.7926658817336552	0.12960190528069598																-0.27884190939087394	2.0387032365329394	-0.6919389374871814	-0.26227357614755387	2.074551125510112	-0.6646445091490626	-0.2977487008324383	2.0323716984904956	-0.6067452955405975	-1.506649316040823	1.864400743451711	0.6886798295104551	-0.2827243939379347	1.8965176580503238	-0.5288123294126289	-0.25542255299704075	2.045223117391427	-0.7782281677110713	-0.24298034508779248	1.9748249369403668	-0.7807949745587953	-0.2651644477929393	2.0252931393340017	-0.7094098858873876
28	0.9333333333333333	-0.2863781362359171	1.8841287829082416	-0.7030646640122652	-0.29781528242767563	1.881076219071343	-0.6463406696498415																-1.1779017324452181	1.7908281358468632	0.11292171391844391																-0.28032090078062855	2.0404072518553265	-0.7061382459834283	-0.25949444871887484	2.0776244341254007	-0.6836058932162845	-0.2985072868869177	2.035028435987655	-0.6185177950868695	-1.484400102340009	1.8661830268631348	0.6400651356588243	-0.2890562376945759	1.8968662411566088	-0.556978467805202	-0.25961409838011834	2.0471394703721257	-0.7929267420372368	-0.24587042801798975	1.9767000918886148	-0.792571502577585	-0.2717836731038451	2.0308787464947833	-0.7228529050736543
